# xmcd CD database file
#
# Track frame offsets:
#	150
#	16132
#	38072
#
# Disc length: 717 seconds
#
# Revision: 0
# Processed by: cddbd v1.5PL3 Copyright (c) Steve Scherf et al.
# Submitted via: CDex 1.50
#
DISCID=1602cb03
DTITLE=ICE - ＣＡＮ’Ｔ　ＳＴＯＰ　ＴＨＥ　ＭＵＳＩＣ
DYEAR=1900
DGENRE=JPop
TTITLE0=ＣＡＮ’Ｔ　ＳＴＯＰ　ＴＨＥ　ＭＵＳＩＣ
TTITLE1=ＢＬＵＥＳ　ＶＩＢＲＡＴＩＯＮ
TTITLE2=ＣＡＮ’Ｔ　ＳＴＯＰ　ＴＨＥ　ＭＵＳＩＣ　（Inst）
EXTD=
EXTT0=
EXTT1=
EXTT2=
PLAYORDER=
